{"title":"Everest.2015.WEBRip.480p.x264.AAC-VYTO [P2PDL]","uid":12884218,"size":478989703,"categoryP":"video","categoryS":"movies","magnet":"?xt=urn:btih:ae9ab9a28ff5e0890dab5e6a87be5efb071d6bac&amp;dn=Everest.2015.WEBRip.480p.x264.AAC-VYTO+%5BP2PDL%5D&amp;tr=udp%3A%2F%2Ftracker.leechers-paradise.org%3A6969&amp;tr=udp%3A%2F%2Fzer0day.ch%3A1337&amp;tr=udp%3A%2F%2Fopen.demonii.com%3A1337&amp;tr=udp%3A%2F%2Ftracker.coppersurfer.tk%3A6969&amp;tr=udp%3A%2F%2Fexodus.desync.com%3A6969","seeders":1,"leechers":0,"uploader":"VYTOP2PDL","files":7,"time":1449049566,"description":"Everest.2015.WEBRip.480p.x264.AAC-VYTO\r\n\r\n\r\nGenre: Adventure, Biography, Drama   \nhttp://www.imdb.com/title/tt2719848/\r\n\r\n\r\nGeneral\r\nFormat                         : MPEG-4\r\nFile size                      : 452 MiB\r\nDuration                       : 2h 1mn\r\nOverall bit rate               : 521 Kbps\r\n\r\nVideo\r\nFormat                         : AVC\r\nBit rate                       : 486 Kbps\r\nWidth                          : 720 pixels\r\nHeight                         : 304 pixels\r\nDisplay aspect ratio           : 2.35:1\r\nFrame rate mode                : Constant\r\nFrame rate                     : 23.976 fps\r\nBit depth                      : 8 bits\r\nStream size                    : 421 MiB (93%)\r\nWriting library                : x264\r\n\r\nAudio\r\nFormat                         : AAC\r\nBit rate mode                  : Variable\r\nBit rate                       : 32.0 Kbps\r\nChannel(s)                     : 2 channels\r\nChannel positions              : Front: L R\r\nSampling rate                  : 48.0 KHz\r\nStream size                    : 27.7 MiB (6%)\r\nLanguage                       : English\r\n\r\nSubtitle                       : Yes (English)\r\n \nhttp://ititli.com/lD \nhttp://ititli.com/la \nhttp://ititli.com/lb \nhttp://ititli.com/lz \nhttp://ititli.com/lI \nhttp://ititli.com/lO \nhttp://ititli.com/m9 \nhttp://ititli.com/mX \nhttp://ititli.com/mq\r\n\r\n----------------------------------------------------------------------------------------------------\r\n\r\n\r\nEncoder Notes: Looking For Early Access To Anything You Can Provide DVDScr, R5, DVDR, BluRay, Direct\r\nAudio, Music Releases and Seedboxes. If You Got anything to offer please contact us.\r\n\r\nSupport us by donating BC - 1FgwdzPsd1y25Gea8wP1qni35uGCtmkRCD","torrent":{"xt":"urn:btih:ae9ab9a28ff5e0890dab5e6a87be5efb071d6bac","amp;dn":"Everest.2015.WEBRip.480p.x264.AAC-VYTO+%5BP2PDL%5D","amp;tr":["udp%3A%2F%2Ftracker.leechers-paradise.org%3A6969","udp%3A%2F%2Fzer0day.ch%3A1337","udp%3A%2F%2Fopen.demonii.com%3A1337","udp%3A%2F%2Ftracker.coppersurfer.tk%3A6969","udp%3A%2F%2Fexodus.desync.com%3A6969"],"infoHash":"ae9ab9a28ff5e0890dab5e6a87be5efb071d6bac","infoHashBuffer":{"type":"Buffer","data":[174,154,185,162,143,245,224,137,13,171,94,106,135,190,94,251,7,29,107,172]},"announce":[],"urlList":[]}}